<?xml version="1.0" encoding="utf-8"?>
<!-- Generator: Adobe Illustrator 25.4.1, SVG Export Plug-In . SVG Version: 6.00 Build 0)  -->
<svg version="1.1"
	 id="svg4972" inkscape:export-filename="Dialog help.png" inkscape:export-ydpi="96" sodipodi:docname="Dialog help.svg" xmlns:cc="http://creativecommons.org/ns#" xmlns:dc="http://purl.org/dc/elements/1.1/" xmlns:inkscape="http://www.inkscape.org/namespaces/inkscape" xmlns:rdf="http://www.w3.org/1999/02/22-rdf-syntax-ns#" xmlns:sodipodi="http://sodipodi.sourceforge.net/DTD/sodipodi-0.dtd" xmlns:svg="http://www.w3.org/2000/svg"
	 xmlns="http://www.w3.org/2000/svg" xmlns:xlink="http://www.w3.org/1999/xlink" x="0px" y="0px" viewBox="0 0 500 400"
	 style="enable-background:new 0 0 500 400;" xml:space="preserve">
<style type="text/css">
	
		.st0{fill:none;stroke:url(#path5422_00000091713741260587962790000010549006817144436157_);stroke-width:1.5003;stroke-linejoin:round;stroke-miterlimit:15.1181;}
	.st1{fill:none;}
	.st2{fill-rule:evenodd;clip-rule:evenodd;stroke:#000000;stroke-width:0.6001;stroke-miterlimit:2.4005;}
	.st3{fill-rule:evenodd;clip-rule:evenodd;stroke:#000000;stroke-width:3.7795;stroke-miterlimit:15.1181;}
	
		.st4{fill:none;stroke:url(#path5986_00000011749737572521007190000010186198780214940295_);stroke-width:0.7502;stroke-miterlimit:15.1181;stroke-dasharray:4.5009,4.5009;}
	.st5{fill-rule:evenodd;clip-rule:evenodd;stroke:#000000;stroke-width:0.3001;stroke-miterlimit:1.2003;}
	
		.st6{fill:none;stroke:url(#path6770_00000062878436365549824080000009507601118900480664_);stroke-width:0.7502;stroke-miterlimit:15.1181;}
	
		.st7{fill:none;stroke:url(#path6772_00000119820880893934715010000008756650304219452823_);stroke-width:0.7502;stroke-miterlimit:15.1181;}
	
		.st8{fill:none;stroke:url(#path7326_00000074409395153489005490000004094388006874763172_);stroke-width:0.7502;stroke-miterlimit:15.1181;}
	
		.st9{fill:none;stroke:url(#path8612_00000016037206249848150590000003264247780516908693_);stroke-width:0.7502;stroke-miterlimit:15.1181;}
	
		.st10{fill:none;stroke:url(#path8614_00000131369209961438438310000014362351606015004854_);stroke-width:0.7502;stroke-miterlimit:15.1181;}
	
		.st11{fill:none;stroke:url(#path7326-3_00000063627096332152258590000008471328416236446624_);stroke-width:0.7502;stroke-miterlimit:15.1181;}
	.st12{font-family:'SourceHanSansCN-Regular-GBpc-EUC-H';}
	.st13{font-size:17.947px;}
	.st14{font-family:'ArialMT';}
	.st15{font-size:20.0042px;}
	.st16{font-size:12px;}
	.st17{font-size:14.003px;}
</style>
<sodipodi:namedview  bordercolor="#666666" borderopacity="1.0" id="base" inkscape:current-layer="layer1" inkscape:cx="230.71429" inkscape:cy="242.85714" inkscape:deskcolor="#d1d1d1" inkscape:document-units="px" inkscape:pagecheckerboard="false" inkscape:pageopacity="0" inkscape:pageshadow="2" inkscape:window-height="1001" inkscape:window-maximized="1" inkscape:window-width="1920" inkscape:window-x="-7" inkscape:window-y="-7" inkscape:zoom="1.4" pagecolor="#efefef" showgrid="false" units="px">
	</sodipodi:namedview>
<g id="layer2" inkscape:groupmode="layer" inkscape:label="Base">
	
		<linearGradient id="path5422_00000055697585469461861370000010926131745293515693_" gradientUnits="userSpaceOnUse" x1="4.7837" y1="482.8416" x2="118.1459" y2="482.8416" gradientTransform="matrix(2.8352 0 0 -2.8352 85.9931 1513.1774)">
		<stop  offset="0" style="stop-color:#4795CC"/>
		<stop  offset="1" style="stop-color:#000000"/>
	</linearGradient>
	
		<path id="path5422" sodipodi:nodetypes="ccccccccccccccccccccccccccccccccccccccccccccccccc" style="fill:none;stroke:url(#path5422_00000055697585469461861370000010926131745293515693_);stroke-width:1.5003;stroke-linejoin:round;stroke-miterlimit:15.1181;" d="
		M101.9,191.2l0.4,36.6l15.1,9.2 M146.8,244.4l274.1-50.9 M131,190.3l-28.9,0.9l15,7.9 M131,184.7v5.6l15.3,8.3 M101,143.9l0.8,38.1
		l15,6.4 M130.2,143.7l-29.2,0.3l15,7.2 M144.7,150.1l-14.5-6.7l-0.3-6.7 M129.4,96.2l15.3,6.2 M99.9,96.2l15,6.2 M129.4,78.6v17.7
		l-29.5,0.3l0.5,38l14.7,5.9 M144.4,84.2l0.3,18.5l-30-0.5l0.8,38.6l29.5-8l0.3,18.5h-29l0.5,37.1l29.3-8.2l0.3,18.5l-29.5,0.8
		l0.8,37.5l29.5-9.4v16.9l-15.3-8.8l0-3.2 M420.9,51L144.4,84.5l-15-5.6L420.6,44"/>
</g>
<g id="layer3" inkscape:groupmode="layer" inkscape:label="Lines">
	<path class="st1" d=""/>
	<path id="path5727" inkscape:connector-curvature="0" class="st2" d="M241.1,180.4c-0.9,1.4-2.8,1.7-4.2,0.7s-1.7-2.8-0.7-4.2
		c0.9-1.4,2.8-1.7,4.2-0.7C241.7,177.2,242,179,241.1,180.4z"/>
	<path id="path5664" inkscape:connector-curvature="0" sodipodi:nodetypes="cc" class="st3" d="M304.4,224.5"/>
	<path class="st1" d=""/>
	<path id="path5727-5" inkscape:connector-curvature="0" class="st2" d="M149.3,189.8c-0.1,1.7-1.5,2.9-3.2,2.8
		c-1.7-0.1-2.9-1.5-2.8-3.2c0.1-1.7,1.5-2.9,3.2-2.8C148.1,186.7,149.4,188.2,149.3,189.8z"/>
	<path id="path5664-8" inkscape:connector-curvature="0" sodipodi:nodetypes="cc" class="st3" d="M173.5,191.5"/>
	<path class="st1" d=""/>
	<path id="path5727-5-0" inkscape:connector-curvature="0" class="st2" d="M148.5,238.7c-1.4,0.9-3.2,0.5-4.2-0.8s-0.5-3.2,0.8-4.2
		s3.2-0.5,4.2,0.8S149.9,237.8,148.5,238.7z"/>
	<path id="path5664-8-2" inkscape:connector-curvature="0" sodipodi:nodetypes="cc" class="st3" d="M183.1,290.7"/>
	
		<linearGradient id="path5986_00000008868589780391712420000007179911287853309328_" gradientUnits="userSpaceOnUse" x1="-22.0347" y1="619.0214" x2="-21.0347" y2="619.0214" gradientTransform="matrix(1.8826 0 0 -161.474 185.912 100120.1484)">
		<stop  offset="0" style="stop-color:#555555"/>
		<stop  offset="1" style="stop-color:#000000"/>
	</linearGradient>
	
		<path id="path5986" inkscape:connector-curvature="0" style="fill:none;stroke:url(#path5986_00000008868589780391712420000007179911287853309328_);stroke-width:0.7502;stroke-miterlimit:15.1181;stroke-dasharray:4.5009,4.5009;" d="
		M144.4,83.6l1.9,161.5"/>
	<path class="st1" d=""/>
	<path id="path6102" inkscape:connector-curvature="0" class="st2" d="M149,214c-0.9,1.4-2.8,1.8-4.2,0.8c-1.4-0.9-1.8-2.8-0.8-4.2
		s2.8-1.8,4.2-0.8C149.6,210.7,149.9,212.6,149,214z"/>
	<path id="path6100" inkscape:connector-curvature="0" sodipodi:nodetypes="cc" class="st3" d="M199.7,247.7"/>
	<path class="st1" d=""/>
	<path id="path8618" class="st5" d="M385.2,62.5l1.5,1.5l-1.5-5.3l-1.5,5.3L385.2,62.5z"/>
	<path id="path5675" class="st5" d="M385.2,193.5l-1.5-1.5l1.5,5.3l1.5-5.3L385.2,193.5z"/>
	<path id="path6700" inkscape:connector-curvature="0" sodipodi:nodetypes="cc" class="st3" d="M385.2,196.5"/>
	
		<linearGradient id="path6770_00000119826845808663864680000015659496022230573983_" gradientUnits="userSpaceOnUse" x1="-34.5646" y1="615.5266" x2="-33.5646" y2="615.5266" gradientTransform="matrix(3.7795 0 0 -45.4412 229.8704 28038.8984)">
		<stop  offset="0" style="stop-color:#555555"/>
		<stop  offset="1" style="stop-color:#000000"/>
	</linearGradient>
	
		<path id="path6770" inkscape:connector-curvature="0" sodipodi:nodetypes="cc" style="fill:none;stroke:url(#path6770_00000119826845808663864680000015659496022230573983_);stroke-width:0.7502;stroke-miterlimit:15.1181;" d="
		M99.2,91.3V45.9"/>
	
		<linearGradient id="path6772_00000007388568857664688470000010947224750775399334_" gradientUnits="userSpaceOnUse" x1="213.7061" y1="613.0751" x2="214.7061" y2="613.0751" gradientTransform="matrix(0.1803 0 0 -30.2121 90.6578 18581.1602)">
		<stop  offset="0" style="stop-color:#555555"/>
		<stop  offset="1" style="stop-color:#000000"/>
	</linearGradient>
	
		<path id="path6772" inkscape:connector-curvature="0" sodipodi:nodetypes="cc" style="fill:none;stroke:url(#path6772_00000007388568857664688470000010947224750775399334_);stroke-width:0.7502;stroke-miterlimit:15.1181;" d="
		M129.2,74l0.2-30.2"/>
	<path class="st1" d=""/>
	<path id="path5672" class="st5" d="M104.4,54.9l1.4-1.6l-5.1,2l5.4,1L104.4,54.9z"/>
	<path id="path5675_00000026878607613408961170000003791615095440079790_" class="st5" d="M124,53l-1.4,1.6l5.1-2l-5.4-1L124,53z"/>
	<path id="path6774" inkscape:connector-curvature="0" sodipodi:nodetypes="cc" class="st3" d="M127,52.7"/>
	
		<linearGradient id="path7326_00000047026579335569200080000009697366596915935366_" gradientUnits="userSpaceOnUse" x1="-45.2996" y1="612.0488" x2="-44.2996" y2="612.0488" gradientTransform="matrix(27.6399 0 0 -26.495 1365.7455 16254.5166)">
		<stop  offset="0" style="stop-color:#555555"/>
		<stop  offset="1" style="stop-color:#000000"/>
	</linearGradient>
	
		<path id="path7326" inkscape:connector-curvature="0" sodipodi:nodetypes="cc" style="fill:none;stroke:url(#path7326_00000047026579335569200080000009697366596915935366_);stroke-width:0.7502;stroke-miterlimit:15.1181;" d="
		M113.7,51.5L141.3,25"/>
	
		<linearGradient id="path8612_00000179620984006440166820000008056643661921793467_" gradientUnits="userSpaceOnUse" x1="-34.5646" y1="616.7078" x2="-33.5646" y2="616.7078" gradientTransform="matrix(3.7795 0 0 -60.0182 232.8001 37277.4492)">
		<stop  offset="0" style="stop-color:#555555"/>
		<stop  offset="1" style="stop-color:#000000"/>
	</linearGradient>
	
		<path id="path8612" inkscape:connector-curvature="0" style="fill:none;stroke:url(#path8612_00000179620984006440166820000008056643661921793467_);stroke-width:0.7502;stroke-miterlimit:15.1181;" d="
		M102.2,233.8v60"/>
	
		<linearGradient id="path8614_00000043457628518095601680000012276748028869617577_" gradientUnits="userSpaceOnUse" x1="-34.5646" y1="616.9064" x2="-33.5646" y2="616.9064" gradientTransform="matrix(3.7795 0 0 -63.4399 248.3068 39408.918)">
		<stop  offset="0" style="stop-color:#555555"/>
		<stop  offset="1" style="stop-color:#000000"/>
	</linearGradient>
	
		<path id="path8614" inkscape:connector-curvature="0" sodipodi:nodetypes="cc" style="fill:none;stroke:url(#path8614_00000043457628518095601680000012276748028869617577_);stroke-width:0.7502;stroke-miterlimit:15.1181;" d="
		M117.7,240.7v63.4"/>
	<path class="st1" d=""/>
	<path id="path8618_00000085964135509747598880000004598116800104509088_" class="st5" d="M106.4,291.9l2.1-0.2l-5-2.1l3.2,4.4
		L106.4,291.9z"/>
	<path id="path8688" class="st5" d="M113.5,297.5l-2.1,0.2l5,2.1l-3.2-4.4L113.5,297.5z"/>
	<path id="path8616" inkscape:connector-curvature="0" class="st3" d="M115.8,299.4"/>
	
		<linearGradient id="path7326-3_00000000197541939141442750000010666090105234029970_" gradientUnits="userSpaceOnUse" x1="-43.4891" y1="610.5344" x2="-42.4891" y2="610.5344" gradientTransform="matrix(13.3868 0 0 -22.4237 677.1785 14001.4736)">
		<stop  offset="0" style="stop-color:#555555"/>
		<stop  offset="1" style="stop-color:#000000"/>
	</linearGradient>
	
		<path id="path7326-3" inkscape:connector-curvature="0" sodipodi:nodetypes="cc" style="fill:none;stroke:url(#path7326-3_00000000197541939141442750000010666090105234029970_);stroke-width:0.7502;stroke-miterlimit:15.1181;" d="
		M108.4,299.8L95,322.3"/>
	<path class="st1" d=""/>
	<path id="path5727-5_00000151519417729479155140000002081656135070236592_" inkscape:connector-curvature="0" class="st2" d="
		M105,168.1c-0.6-1.6,0.2-3.3,1.8-3.9c1.6-0.6,3.3,0.2,3.9,1.8s-0.2,3.3-1.8,3.9C107.3,170.5,105.6,169.7,105,168.1z"/>
	<path id="path517" inkscape:connector-curvature="0" sodipodi:nodetypes="cc" class="st3" d="M63.6,183.5"/>
	<path class="st1" d=""/>
	<path id="path8618_00000143606555627362113510000006815766383408605086_" class="st5" d="M165.9,143.4l1.7-1.3l-5.4,0.8l5,2.2
		L165.9,143.4z"/>
	<path id="path760" inkscape:connector-curvature="0" sodipodi:nodetypes="cc" class="st3" d="M220.1,150.8"/>
	<path class="st1" d=""/>
	<path id="path8618_00000085971989380403992070000000259596548949452728_" class="st5" d="M159.7,125.4l0-2.1l-2.7,4.8l4.8-2.6
		L159.7,125.4z"/>
	<path id="path5675_00000019653429731485552610000002870016379469169303_" class="st5" d="M133.2,119.1l1-1.9l-4.6,2.9l5.5,0
		L133.2,119.1z"/>
	<path id="path3474" sodipodi:nodetypes="ccc" class="st3" d="M130.3,120"/>
</g>
<g id="layer1" transform="translate(0,-138.24998)" inkscape:groupmode="layer" inkscape:label="Text">
	<text transform="matrix(1 0 0 1 299.7656 379.1673)" class="st12 st13">面</text>
	<text transform="matrix(1 0 0 1 174.9766 336.3861)" class="st12 st13">榫肩</text>
	<text transform="matrix(1 0 0 1 202.6152 397.7826)" class="st12 st13">边</text>
	<text transform="matrix(1 0 0 1 378.8786 260.7957)" class="st12 st13">边长</text>
	<text transform="matrix(1 0 0 1 174.2285 446.8314)" class="st12 st13">起始类型：</text>
	<text transform="matrix(1 0 0 1 143.3164 166.7513)" class="st12 st13">高度</text>
	<text transform="matrix(1 0 0 1 117.1602 263.5872)" class="st14 st13">a</text>
	<text transform="matrix(1 0 0 1 117.1602 263.5872)" class="st14 st13">a</text>
	<text transform="matrix(1 0 0 1 148.6016 284.4935)" class="st14 st13">b</text>
	<text transform="matrix(1 0 0 1 184.7988 240.265)" class="st12 st15">榫头与榫肩比例</text>
	<text transform="matrix(1 0 0 1 32.3105 478.0169)" class="st12 st13">厚度</text>
	<text transform="matrix(1 0 0 1 32.4453 327.8138)" class="st12 st13">榫头</text>
	<text transform="matrix(1 0 0 1 224.8086 294.5912)" class="st12 st15">最大榫肩宽度</text>
	<text transform="matrix(1 0 0 1 174.2285 462.8275)" class="st12 st16">完整榫肩或半榫肩</text>
	<text transform="matrix(1 0 0 1 32.3105 494.013)" class="st12 st16">通常设置为</text>
	<text transform="matrix(1 0 0 1 32.3105 508.4603)" class="st12 st16">板材厚度参数</text>
	<text transform="matrix(1 0 0 1 32.3105 522.9076)" class="st12 st16">例如 &quot;drawer_side_thickness&quot;</text>
	<text transform="matrix(1 0 0 1 184.7988 253.5677)" class="st14 st17">a/b</text>
</g>
</svg>
